<?xml version="1.0" standalone="no"?>
<!DOCTYPE svg PUBLIC "-//W3C//DTD SVG 20010904//EN"
 "http://www.w3.org/TR/2001/REC-SVG-20010904/DTD/svg10.dtd">
<svg version="1.0" xmlns="http://www.w3.org/2000/svg"
 width="278.000000pt" height="278.000000pt" viewBox="0 0 278.000000 278.000000"
 preserveAspectRatio="xMidYMid meet">
<metadata>
Created by potrace 1.10, written by Peter Selinger 2001-2011
</metadata>
<g transform="translate(0.000000,278.000000) scale(0.100000,-0.100000)"
fill="#000000" stroke="none">
<path d="M1430 2449 c0 -6 -9 -9 -19 -6 -11 2 -32 -4 -48 -14 -15 -10 -36 -19
-45 -19 -22 0 -23 -9 -2 -39 14 -19 23 -22 63 -19 l46 3 3 -91 c3 -87 0 -97
-47 -232 -33 -95 -46 -142 -38 -145 15 -6 14 -176 -2 -205 -15 -27 -14 -52 2
-52 9 0 12 -104 12 -487 l0 -486 82 -1 83 -1 0 488 c0 429 2 487 15 487 12 0
14 7 9 28 -4 15 -11 29 -15 32 -14 10 -16 184 -2 195 10 8 2 39 -32 138 l-45
128 0 155 c0 96 -4 154 -10 154 -5 0 -10 -5 -10 -11z m-2 -50 c3 -24 0 -26
-39 -27 -58 -3 -65 6 -27 34 41 29 62 27 66 -7z m52 -388 l38 -111 -79 0 c-43
0 -79 3 -79 6 0 12 75 222 78 219 2 -1 20 -53 42 -114z m20 -223 l0 -93 -65 3
-65 4 0 89 0 89 65 0 65 0 0 -92z m20 -125 c0 -16 -10 -18 -81 -16 -44 0 -83
4 -86 6 -16 17 17 27 88 27 69 0 79 -2 79 -17z m-110 -98 c0 -58 -2 -65 -20
-65 -18 0 -20 7 -20 65 0 58 2 65 20 65 18 0 20 -7 20 -65z m27 -32 c-2 -21
-4 -6 -4 32 0 39 2 55 4 38 2 -18 2 -50 0 -70z m63 32 c0 -58 -2 -65 -20 -65
-18 0 -20 7 -20 65 0 58 2 65 20 65 18 0 20 -7 20 -65z m0 -487 l0 -408 -65 0
-65 0 0 408 0 407 65 0 65 0 0 -407z"/>
<path d="M1404 1826 c-3 -13 -4 -38 -2 -57 3 -30 7 -34 36 -37 32 -3 32 -3 32
42 0 60 -8 76 -36 76 -16 0 -25 -7 -30 -24z m46 -37 c0 -28 -4 -39 -15 -39
-11 0 -15 11 -15 38 0 21 3 42 6 45 14 13 24 -6 24 -44z"/>
<path d="M1095 2284 c-9 -9 -14 -23 -11 -31 3 -8 6 -17 6 -19 0 -12 49 -2 54
12 10 25 7 33 -13 44 -15 7 -24 6 -36 -6z m35 -19 c0 -8 -7 -15 -15 -15 -16 0
-20 12 -8 23 11 12 23 8 23 -8z"/>
<path d="M910 2115 c-17 -20 -5 -62 20 -70 44 -14 80 41 48 73 -17 17 -53 15
-68 -3z m58 -29 c-4 -25 -36 -34 -44 -12 -8 21 13 46 32 39 8 -3 14 -15 12
-27z"/>
<path d="M810 1994 c0 -94 -8 -162 -45 -362 -28 -152 -41 -248 -35 -250 6 -2
10 -131 10 -365 l0 -362 82 2 83 2 0 358 c0 249 3 360 11 365 8 5 -4 87 -38
270 -36 199 -48 287 -48 361 0 58 -4 97 -10 97 -6 0 -10 -45 -10 -116z m55
-374 c21 -113 39 -208 42 -212 2 -5 -35 -8 -82 -8 -78 0 -86 2 -81 18 3 9 19
96 36 192 38 217 42 237 46 225 2 -5 19 -102 39 -215z m25 -305 l0 -65 -65 0
-65 0 0 65 0 65 65 0 65 0 0 -65z m0 -362 l0 -283 -65 0 -65 0 0 283 0 284 65
0 65 -1 0 -283z"/>
<path d="M780 1179 c0 -17 4 -28 10 -24 6 3 10 17 10 31 0 13 -4 24 -10 24 -5
0 -10 -14 -10 -31z"/>
<path d="M810 1186 c0 -14 5 -28 10 -31 6 -4 10 7 10 24 0 17 -4 31 -10 31 -5
0 -10 -11 -10 -24z"/>
<path d="M850 1179 c0 -17 4 -28 10 -24 6 3 10 17 10 31 0 13 -4 24 -10 24 -5
0 -10 -14 -10 -31z"/>
<path d="M1996 1920 l3 -139 -48 -144 c-50 -149 -65 -257 -36 -257 7 0 12 -8
10 -17 -2 -10 -4 -136 -4 -280 -1 -168 -5 -263 -11 -263 -6 0 -10 92 -10 255
l0 255 -180 0 -180 0 2 -337 3 -337 80 1 80 1 3 256 c1 159 6 256 12 256 6 0
10 -95 10 -257 l0 -258 180 0 180 0 -2 363 c-3 302 -1 362 11 362 10 0 12 9 9
33 -3 17 -2 41 2 52 4 11 3 27 -2 35 -4 8 -29 75 -54 149 -41 123 -45 140 -42
220 l3 86 42 -3 c32 -2 47 2 62 17 25 25 27 41 6 41 -8 0 -31 9 -51 19 -20 11
-42 17 -50 14 -8 -3 -14 0 -14 6 0 6 -4 11 -8 11 -5 0 -7 -63 -6 -140z m80 89
c43 -26 35 -39 -21 -37 -39 2 -45 5 -45 24 0 40 17 43 66 13z m-31 -389 c19
-57 35 -108 35 -112 0 -4 -35 -8 -78 -8 l-78 0 39 115 c22 64 41 114 43 112 3
-2 20 -51 39 -107z m45 -155 c0 -12 -16 -15 -85 -15 -69 0 -85 3 -85 15 0 12
16 15 85 15 69 0 85 -3 85 -15z m4 -50 c4 -13 -9 -15 -84 -15 -73 0 -90 3 -90
15 0 12 16 15 84 15 65 0 85 -3 90 -15z m-24 -145 l0 -110 -65 0 -65 0 0 110
0 110 65 0 65 0 0 -110z m-190 -215 l0 -255 30 0 30 0 0 174 0 174 65 1 65 1
0 -240 0 -240 -160 0 -160 0 0 258 0 259 -30 1 -30 1 0 -260 0 -259 -65 0 -65
0 0 320 0 320 160 0 160 0 0 -255z"/>
<path d="M1960 1320 c0 -16 5 -30 10 -30 6 0 10 14 10 30 0 17 -4 30 -10 30
-5 0 -10 -13 -10 -30z"/>
<path d="M1997 1343 c-2 -5 -1 -19 4 -33 7 -23 7 -23 8 8 1 31 -3 40 -12 25z"/>
<path d="M2030 1320 c0 -16 5 -30 10 -30 6 0 10 14 10 30 0 17 -4 30 -10 30
-5 0 -10 -13 -10 -30z"/>
<path d="M975 1873 c-4 -13 -12 -23 -19 -23 -6 0 -3 -5 6 -11 10 -5 15 -16 12
-24 -4 -8 -1 -15 5 -15 6 0 11 5 11 11 0 7 8 18 18 25 16 12 16 13 0 14 -9 0
-19 10 -21 23 l-4 22 -8 -22z"/>
<path d="M1182 1834 c-27 -18 -29 -55 -4 -77 35 -32 82 -10 82 38 0 20 -32 55
-50 55 -3 0 -16 -7 -28 -16z m46 -13 c8 -4 12 -19 10 -32 -2 -18 -9 -24 -28
-24 -28 0 -39 27 -20 50 14 17 20 18 38 6z"/>
<path d="M1806 1777 c-10 -7 -17 -22 -14 -33 4 -24 41 -30 58 -9 11 14 10 19
-6 36 -17 16 -22 17 -38 6z m34 -28 c0 -5 -7 -9 -15 -9 -15 0 -20 12 -9 23 8
8 24 -1 24 -14z"/>
<path d="M1642 1768 c-34 -34 6 -90 48 -68 35 19 20 80 -20 80 -9 0 -21 -5
-28 -12z m51 -22 c7 -17 -18 -40 -33 -31 -5 3 -10 15 -10 26 0 23 35 27 43 5z"/>
<path d="M1873 1652 c-13 -22 7 -45 24 -27 7 8 7 16 -1 27 -11 15 -13 15 -23
0z"/>
<path d="M1164 1587 c-2 -7 -3 -182 -1 -390 1 -296 -1 -377 -10 -377 -10 0
-13 65 -13 290 l0 290 -85 0 -85 0 2 -371 3 -372 178 -1 177 -1 -2 470 -3 470
-78 2 c-52 1 -80 -3 -83 -10z m146 -462 l0 -455 -160 0 -160 0 0 355 0 355 65
0 65 0 0 -290 0 -290 30 0 30 0 0 390 0 390 65 0 65 0 0 -455z"/>
<path d="M810 470 c0 -53 4 -90 10 -90 6 0 10 31 10 72 l0 73 43 -73 c23 -39
47 -72 53 -72 7 0 11 32 11 90 0 50 -3 90 -8 90 -5 0 -9 -35 -9 -77 l0 -77
-33 55 c-54 88 -61 99 -69 99 -5 0 -8 -40 -8 -90z"/>
<path d="M960 470 l0 -90 60 0 c33 0 60 4 60 10 0 6 -22 10 -50 10 -49 0 -50
1 -50 30 0 29 2 30 45 30 25 0 45 5 45 10 0 6 -20 10 -45 10 -43 0 -45 1 -45
30 0 29 2 30 45 30 25 0 45 5 45 10 0 6 -25 10 -55 10 l-55 0 0 -90z"/>
<path d="M1085 539 c31 -98 53 -153 61 -156 6 -2 21 32 33 74 13 43 26 84 28
91 3 6 1 12 -4 12 -5 0 -19 -31 -32 -70 -12 -38 -24 -70 -26 -70 -1 0 -13 32
-24 70 -12 39 -26 70 -32 70 -6 0 -8 -9 -4 -21z"/>
<path d="M1226 472 l0 -87 46 -3 c40 -3 45 -5 41 -23 -15 -55 72 -77 141 -36
30 19 48 23 85 19 33 -3 50 0 59 11 27 32 -18 68 -58 47 -21 -11 -22 -10 -19
69 2 45 0 82 -5 83 -5 2 -8 -36 -7 -84 2 -87 -7 -111 -33 -89 -19 16 -29 73
-14 82 17 11 15 78 -2 90 -8 5 -34 9 -57 9 l-43 0 0 -90 c0 -58 4 -90 11 -90
6 0 9 15 7 37 -3 33 -1 36 24 37 22 1 28 -4 38 -39 7 -22 17 -46 22 -53 17
-20 -72 -55 -107 -42 -25 9 -27 14 -22 45 l6 35 -50 0 c-48 0 -49 1 -49 30 0
29 2 30 44 30 25 0 48 5 51 10 4 6 -13 10 -43 10 -48 0 -49 1 -50 30 -1 29 0
30 49 30 27 0 49 5 49 10 0 6 -26 10 -57 10 l-58 0 1 -88z m229 33 c0 -27 -3
-30 -36 -33 -35 -3 -37 -2 -41 33 l-4 36 40 -3 c38 -3 41 -5 41 -33z m133
-132 c2 -9 -9 -13 -40 -13 -42 1 -43 1 -18 15 29 17 51 16 58 -2z"/>
<path d="M1643 470 c-18 -49 -28 -90 -23 -90 5 0 12 11 16 25 5 22 12 25 49
25 37 0 44 -3 47 -22 2 -12 8 -23 15 -25 6 -2 -2 35 -20 86 -18 50 -37 91 -42
91 -6 0 -25 -40 -42 -90z m64 8 c13 -28 13 -28 -21 -28 l-34 0 16 41 c9 23 18
35 20 28 3 -8 11 -26 19 -41z"/>
<path d="M1770 470 c0 -53 4 -90 10 -90 6 0 10 31 10 72 l0 72 43 -69 c24 -38
48 -70 55 -73 9 -3 12 21 12 87 0 54 -4 91 -10 91 -6 0 -10 -31 -10 -72 l0
-73 -46 73 c-25 39 -50 72 -55 72 -5 0 -9 -40 -9 -90z"/>
<path d="M1926 473 l2 -88 45 -3 c62 -4 77 13 77 88 0 70 -19 90 -85 90 l-40
0 1 -87z m93 53 c7 -8 11 -37 9 -68 l-3 -53 -41 -3 -41 -3 0 70 -1 71 33 0
c18 0 38 -6 44 -14z"/>
</g>
</svg>
